<svg width="378" height="52" viewBox="0 0 378 52" fill="none" xmlns="http://www.w3.org/2000/svg">
<path d="M22.5275 13.9085L29.5602 34.0629H15.4948L22.5275 13.9085ZM19.3828 0.362061L0 50.9514H9.58024L12.7186 41.8718H32.3301L35.5447 50.9514H45.0487L25.8946 0.362061H19.3828Z" fill="black"/>
<path d="M63.1354 24.9451C67.0298 24.9451 69.7933 27.4231 71.7754 30.4031L78.2999 26.6416C75.3903 21.2599 69.5837 17.6445 63.1354 17.6445C53.7077 17.6445 45.9189 25.2946 45.9189 34.7237C45.9189 44.1528 53.7077 51.8028 63.1354 51.8028C69.5837 51.8028 75.3903 48.1875 78.2999 42.8058L71.7754 39.0507C69.787 42.0243 67.0298 44.5023 63.1354 44.5023C57.8244 44.5023 53.7839 39.9656 53.7839 34.7237C53.7839 29.4818 57.8244 24.9451 63.1354 24.9451Z" fill="black"/>
<path d="M127.51 31.4642C128.641 27.2134 132.116 24.6655 136.296 24.6655C140.476 24.6655 143.805 27.2833 144.942 31.4642H127.51ZM136.289 17.6445C126.862 17.6445 119.353 25.2946 119.353 34.7237C119.353 44.1528 127.141 51.8028 136.569 51.8028C142.312 51.8028 147.337 49.1088 150.457 44.7882L144.574 40.3977C142.376 43.0155 140.038 44.6484 136.563 44.6484C132.033 44.6484 128.488 41.6049 127.427 37.4876H152.934C153.074 36.8522 153.214 35.6513 153.214 34.7237C153.226 25.2946 145.717 17.6445 136.289 17.6445Z" fill="black"/>
<path d="M98.3815 17.6445C89.0554 17.6445 82.3721 25.2946 82.3721 34.7237V50.9514H90.1544V34.7237C90.1544 29.4818 93.1276 24.9451 98.3878 24.9451C103.642 24.9451 106.615 29.4818 106.615 34.7237V50.9514H114.397V34.7237C114.391 25.2946 107.701 17.6445 98.3815 17.6445Z" fill="black"/>
<path d="M373.82 33.4466C372.403 32.5252 370.561 31.8899 368.509 31.5277C366.171 31.102 364.678 30.8224 363.763 30.1807C362.842 29.5453 362.556 28.6939 362.556 27.7027C362.556 25.7203 364.182 24.0873 366.59 24.0873C368.998 24.0873 370.415 25.4344 371.056 28.1983L378 26.9275C377.085 21.1836 373.108 17.6445 366.666 17.6445C360.078 17.6445 355.333 22.321 355.333 27.5629C355.333 31.318 356.679 33.796 358.808 35.3591C360.364 36.4901 362.353 37.2017 364.9 37.621C366.387 37.8371 367.943 38.123 368.934 38.6122C370.351 39.3239 370.777 40.4549 370.777 41.6621C370.777 43.7207 369.004 45.3473 366.596 45.3473C364.189 45.3473 362.416 44.0003 362.27 40.7408H355.187V41.1665C355.187 48.6831 361.133 51.7965 366.59 51.7965C372.117 51.7965 377.994 48.0414 377.994 41.6621C378 37.9832 376.513 35.2193 373.82 33.4466Z" fill="black"/>
<path d="M310.564 4.16162H302.705V12.5233H310.564V4.16162Z" fill="black"/>
<path d="M310.57 18.4895H302.705V50.945H310.57V18.4895Z" fill="black"/>
<path d="M214.183 5.5979H206.318V18.4962H202.919V25.7968H206.318V41.0333C206.318 47.7684 211.21 51.8031 217.937 51.8031C218.789 51.8031 219.71 51.7332 220.345 51.5934V44.5025H219.71C216.235 44.5025 214.183 42.9458 214.183 39.1907V25.7968H220.345V18.4962H214.183V5.5979Z" fill="black"/>
<path d="M193.555 24.6593C191.077 23.0327 188.314 22.4609 185.836 21.9653C183.568 21.5332 181.23 21.2536 179.102 19.8367C177.545 18.7756 176.554 17.0728 176.554 14.8045C176.554 10.9795 179.883 7.78982 183.854 7.78982C190.798 7.78982 191.433 15.1603 191.433 15.1603L199.654 13.7434C199.228 9.55619 196.039 0 183.854 0C175.068 0 168.124 6.65883 168.124 14.8108C168.124 20.5547 170.957 25.2311 175.843 27.4931C179.032 28.9799 181.37 29.2658 183.568 29.7614C185.976 30.3333 187.602 30.6128 188.879 31.6739C190.366 32.8812 191.147 34.7873 191.147 36.6363C191.147 40.6011 187.888 43.6509 183.848 43.6509C182.005 43.6509 176.688 42.7995 176.688 35.6387H168.188C168.188 49.0327 179.807 51.4408 183.848 51.4408C192.564 51.4408 199.717 44.8518 199.717 36.6299C199.717 31.4643 197.519 27.2834 193.555 24.6593Z" fill="black"/>
<path d="M333.567 44.5023C328.256 44.5023 324.209 39.9656 324.209 34.7237C324.209 29.4818 328.25 24.9451 333.567 24.9451C338.878 24.9451 342.919 29.4818 342.919 34.7237C342.925 39.9656 338.878 44.5023 333.567 44.5023ZM333.567 17.6445C324.139 17.6445 316.351 25.2946 316.351 34.7237C316.351 44.1528 324.146 51.8028 333.567 51.8028C342.989 51.8028 350.784 44.1528 350.784 34.7237C350.784 25.2946 342.995 17.6445 333.567 17.6445Z" fill="black"/>
<path d="M250.782 34.7243C250.782 39.9662 247.459 44.5029 242.402 44.5029H242.244C237.193 44.5029 233.864 39.9662 233.864 34.7243V18.4966H226.387V34.7243C226.387 44.1471 233.28 51.8035 242.244 51.8035H242.402C251.366 51.8035 258.259 44.1534 258.259 34.7243V18.4966H250.782V34.7243Z" fill="black"/>
<path d="M279.39 44.5287C274.206 44.5287 270 40.1381 270 34.7247C270 29.3112 274.206 24.9207 279.39 24.9207C284.574 24.9207 288.779 29.3112 288.779 34.7247C288.779 40.1381 284.574 44.5287 279.39 44.5287ZM288.741 20.9622C284.961 17.5693 279.39 17.6455 279.39 17.6455C269.968 17.6455 262.116 25.2956 262.116 34.7247C262.116 44.1474 269.968 51.8038 279.39 51.8038C289.11 51.8038 296.606 44.5287 296.606 34.731V0.331299H288.741V20.9622Z" fill="black"/>
</svg>
